<?xml version="1.0" ?><svg height="32" viewBox="0 0 32 32" width="32" xmlns="http://www.w3.org/2000/svg"><defs><style>.cls-1{fill:none;stroke:#000;stroke-linejoin:round;stroke-width:2px;}</style></defs><title/><g data-name="5-Marketing" id="_5-Marketing"><rect class="cls-1" height="14" width="12" x="1" y="9"/><polyline class="cls-1" points="23 25 13 21 13 11"/><polyline class="cls-1" points="27 15 27 27 23 27 23 18"/><polyline class="cls-1" points="4 9 4 16 10 16 10 9"/><line class="cls-1" x1="4" x2="10" y1="19" y2="19"/><rect class="cls-1" height="8" width="6" x="4" y="23"/><line class="cls-1" x1="4" x2="10" y1="27" y2="27"/><polygon class="cls-1" points="17 1 17 11 23 11 23 15 27 11 31 11 31 1 17 1"/><line class="cls-1" x1="20" x2="22" y1="6" y2="6"/><line class="cls-1" x1="23" x2="25" y1="6" y2="6"/><line class="cls-1" x1="26" x2="28" y1="6" y2="6"/></g></svg>