<?xml version="1.0" encoding="iso-8859-1"?>
<!-- Generator: Adobe Illustrator 19.0.0, SVG Export Plug-In . SVG Version: 6.00 Build 0)  -->
<svg version="1.1" id="Capa_1" xmlns="http://www.w3.org/2000/svg" xmlns:xlink="http://www.w3.org/1999/xlink" x="0px" y="0px"
	 viewBox="0 0 512 512" style="enable-background:new 0 0 512 512;" xml:space="preserve">
<g>
	<g>
		<polygon points="225.207,144.297 225.207,198.053 271.764,171.175 		"/>
	</g>
</g>
<g>
	<g>
		<path d="M0,0.015v339.35h10.669c4.32-31.818,31.678-56.427,64.666-56.427c32.988,0,60.336,24.609,64.656,56.427h51.347
			c4.32-31.818,31.668-56.427,64.656-56.427c32.988,0,60.346,24.609,64.666,56.427h51.337c4.32-31.818,31.678-56.427,64.666-56.427
			c32.988,0,60.346,24.609,64.666,56.427H512V0.015H0z M195.209,250.01V92.34l136.552,78.835L195.209,250.01z"/>
	</g>
</g>
<g>
	<g>
		<path d="M113.493,413.461H37.178C16.679,413.461,0,430.14,0,450.639v61.346h150.671v-61.346
			C150.671,430.14,133.992,413.461,113.493,413.461z"/>
	</g>
</g>
<g>
	<g>
		<path d="M109.474,339.365c-3.93-15.179-17.749-26.428-34.138-26.428c-16.399,0-30.218,11.249-34.148,26.428
			c-0.73,2.82-1.12,5.78-1.12,8.829c0,19.449,15.819,35.268,35.268,35.268c19.439,0,35.258-15.819,35.258-35.268
			C110.594,345.145,110.204,342.185,109.474,339.365z"/>
	</g>
</g>
<g>
	<g>
		<path d="M294.163,413.461h-76.326c-20.499,0-37.168,16.679-37.168,37.178v61.346h150.661v-61.346
			C331.331,430.14,314.652,413.461,294.163,413.461z"/>
	</g>
</g>
<g>
	<g>
		<path d="M290.143,339.365c-3.93-15.179-17.749-26.428-34.148-26.428c-16.389,0-30.208,11.249-34.138,26.428
			c-0.73,2.82-1.12,5.78-1.12,8.829c0,19.449,15.819,35.268,35.258,35.268c19.449,0,35.268-15.819,35.268-35.268
			C291.263,345.145,290.873,342.185,290.143,339.365z"/>
	</g>
</g>
<g>
	<g>
		<path d="M474.822,413.461h-76.315c-20.499,0-37.178,16.679-37.178,37.178v61.346H512v-61.346
			C512,430.14,495.321,413.461,474.822,413.461z"/>
	</g>
</g>
<g>
	<g>
		<path d="M470.812,339.365c-3.93-15.179-17.749-26.428-34.148-26.428c-16.389,0-30.218,11.249-34.148,26.428
			c-0.73,2.82-1.12,5.78-1.12,8.829c0,19.449,15.829,35.268,35.268,35.268c19.449,0,35.268-15.819,35.268-35.268
			C471.932,345.145,471.542,342.185,470.812,339.365z"/>
	</g>
</g>
<g>
</g>
<g>
</g>
<g>
</g>
<g>
</g>
<g>
</g>
<g>
</g>
<g>
</g>
<g>
</g>
<g>
</g>
<g>
</g>
<g>
</g>
<g>
</g>
<g>
</g>
<g>
</g>
<g>
</g>
</svg>
