<?xml version="1.0"?>
<svg xmlns="http://www.w3.org/2000/svg" viewBox="0 0 512 512" width="512" height="512"><g id="Outline"><path d="M112,16H32A16.019,16.019,0,0,0,16,32v8H32V32h80V80H32V56H16V80A16.019,16.019,0,0,0,32,96H53.754l-4,16H40v16h64V112H94.246l-4-16H112a16.019,16.019,0,0,0,16-16V32A16.019,16.019,0,0,0,112,16ZM77.754,112H66.246l4-16h3.508ZM112,200H32a16.019,16.019,0,0,0-16,16v48a16.019,16.019,0,0,0,16,16H53.754l-4,16H40v16h64V296H94.246l-4-16H112a16.019,16.019,0,0,0,16-16V216A16.019,16.019,0,0,0,112,200ZM77.754,296H66.246l4-16h3.508ZM112,264H32V216h80l.01,48Zm0,120H32a16.019,16.019,0,0,0-16,16v48a16.019,16.019,0,0,0,16,16H53.754l-4,16H40v16h64V480H94.246l-4-16H112a16.019,16.019,0,0,0,16-16V400A16.019,16.019,0,0,0,112,384ZM77.754,480H66.246l4-16h3.508ZM112,448H32V400h80l.01,48ZM480,16H400a16.019,16.019,0,0,0-16,16V80a16.019,16.019,0,0,0,16,16h21.754l-4,16H408v16h64V112h-9.754l-4-16H480a16.019,16.019,0,0,0,16-16V32A16.019,16.019,0,0,0,480,16Zm-34.246,96H434.246l4-16h3.508ZM480,80H400V32h80l.01,48Zm0,120H400a16.019,16.019,0,0,0-16,16v48a16.019,16.019,0,0,0,16,16h21.754l-4,16H408v16h64V296h-9.754l-4-16H480a16.019,16.019,0,0,0,16-16V216A16.019,16.019,0,0,0,480,200Zm-34.246,96H434.246l4-16h3.508ZM480,264H400V216h80l.01,48Zm0,120H400a16.019,16.019,0,0,0-16,16v48a16.019,16.019,0,0,0,16,16h21.754l-4,16H408v16h64V480h-9.754l-4-16H480a16.019,16.019,0,0,0,16-16v-8H480v8H400V400h80v24h16V400A16.019,16.019,0,0,0,480,384Zm-38.246,80,4,16H434.246l4-16ZM328,155.679l53.206-45.6L370.794,97.926l-42.835,36.715A24.029,24.029,0,0,0,304,112H208a24.029,24.029,0,0,0-23.959,22.641L141.206,97.926l-10.412,12.148L184,155.679V208h16v-9.376A23.889,23.889,0,0,0,208,200h96a23.889,23.889,0,0,0,8-1.376V240a8.009,8.009,0,0,1-8,8H208a8.009,8.009,0,0,1-8-8V224H184v16H144v16h40V364.686l-45.657,45.657,11.314,11.314,39.2-39.2A23.975,23.975,0,0,0,208,392h96a23.975,23.975,0,0,0,19.142-9.543l39.2,39.2,11.314-11.314L328,364.686V256h40V240H328ZM304,376H208a8.009,8.009,0,0,1-8-8V326.624A23.889,23.889,0,0,0,208,328h96a23.889,23.889,0,0,0,8-1.376V368A8.009,8.009,0,0,1,304,376Zm8-72a8.009,8.009,0,0,1-8,8H208a8.009,8.009,0,0,1-8-8V262.624A23.889,23.889,0,0,0,208,264h96a23.889,23.889,0,0,0,8-1.376Zm-8-120H208a8.009,8.009,0,0,1-8-8V136a8.009,8.009,0,0,1,8-8h96a8.009,8.009,0,0,1,8,8v40A8.009,8.009,0,0,1,304,184Zm-72,32v16H216V216Zm64,0v16H248V216Zm-80,64h16v16H216Zm32,0h48v16H248Zm-32,64h16v16H216Zm32,0h48v16H248Z"/></g></svg>
